<svg xmlns="http://www.w3.org/2000/svg" id="svg434" version="1.1">
  <g id="svg-headphones">
    <path id="path414" d="M12.5 1.563c-6.908 0-12.5 5.59-12.5 12.5v2.511a.781.781 0 0 0 .401.683l1.162.648-.001.065a5.469 5.469 0 0 0 5.469 5.469h1.172c.647 0 1.172-.525 1.172-1.172v-8.595c0-.647-.525-1.172-1.172-1.172H7.031a5.47 5.47 0 0 0-5.198 3.766l-.27-.151v-2.052A10.931 10.931 0 0 1 12.5 3.125a10.932 10.932 0 0 1 10.938 10.938v2.052l-.271.151a5.471 5.471 0 0 0-5.198-3.766h-1.172c-.647 0-1.172.525-1.172 1.172v8.594c0 .647.525 1.172 1.172 1.172h1.172a5.469 5.469 0 0 0 5.469-5.469l-.001-.065 1.162-.648a.781.781 0 0 0 .401-.682v-2.511c0-6.908-5.591-12.5-12.5-12.5Zm-5.469 12.5h.781v7.813h-.781c-2.154 0-3.906-1.752-3.906-3.906s1.752-3.906 3.906-3.906Zm10.938 7.813h-.781v-7.813h.781c2.154 0 3.906 1.752 3.906 3.906s-1.752 3.906-3.906 3.906Z"/>
  </g>
  <g id="svg-play">
    <path id="path417" d="M22.542 13.671 7.526 4.156A.991.991 0 0 0 6 4.986v19.029a.991.991 0 0 0 1.526.829l15.016-9.515a.979.979 0 0 0 0-1.658ZM7 24.015l-.004-19.01 15.011 9.48Z"/>
  </g>
  <g id="svg-pause">
    <path id="path420" d="M9.5 4h-3A1.5 1.5 0 0 0 5 5.5v18A1.5 1.5 0 0 0 6.5 25h3a1.5 1.5 0 0 0 1.5-1.5v-18A1.5 1.5 0 0 0 9.5 4Zm.5 19.5a.5.5 0 0 1-.5.5h-3a.5.5 0 0 1-.5-.5v-18a.5.5 0 0 1 .5-.5h3a.5.5 0 0 1 .5.5ZM18.5 4h-3A1.5 1.5 0 0 0 14 5.5v18a1.5 1.5 0 0 0 1.5 1.5h3a1.5 1.5 0 0 0 1.5-1.5v-18A1.5 1.5 0 0 0 18.5 4Zm.5 19.5a.5.5 0 0 1-.5.5h-3a.5.5 0 0 1-.5-.5v-18a.5.5 0 0 1 .5-.5h3a.5.5 0 0 1 .5.5Z"/>
  </g>
  <g id="svg-star">
    <path id="path423" d="M23.58 8.248 15.907 7.01 12.446.271a.5.5 0 0 0-.89 0L8.095 7.01.42 8.249a.5.5 0 0 0-.256.862l5.822 5.221L4.39 22.4a.499.499 0 0 0 .72.541l6.864-3.54 6.863 3.543a.499.499 0 0 0 .72-.538l-1.55-8.078 5.829-5.215a.5.5 0 0 0-.256-.864Zm-6.24 5.334-.422.377.107.557 1.357 7.067-5.95-3.072-.458-.237-.459.237-5.943 3.065 1.396-7.05.11-.558-.424-.38-5.04-4.52 6.64-1.071.5-.08.23-.45 3.017-5.873 3.017 5.872.23.45.5.08 6.637 1.072Z"/>
  </g>
  <g id="svg-star-filled">
    <path id="path426" d="m23.836 9.111-5.83 5.216 1.552 8.077a.5.5 0 0 1-.72.539l-6.864-3.544-6.865 3.541a.5.5 0 0 1-.72-.541l1.597-8.067-5.822-5.22a.5.5 0 0 1 .256-.864L8.095 7.01 11.556.271a.5.5 0 0 1 .89 0l3.461 6.738 7.673 1.239a.5.5 0 0 1 .256.863Z"/>
  </g>
  <g id="svg-cog">
    <path id="path429" d="m24.276 10.552-2.056-.589a.489.489 0 0 1-.332-.331 9.777 9.777 0 0 0-.72-1.746.486.486 0 0 1 .002-.467l1.032-1.859a1 1 0 0 0-.168-1.192l-1.401-1.403a1 1 0 0 0-1.193-.167L17.58 3.83a.486.486 0 0 1-.467 0 9.756 9.756 0 0 0-1.745-.72.489.489 0 0 1-.331-.33l-.59-2.055a1 1 0 0 0-.96-.725h-1.973a1 1 0 0 0-.962.725l-.589 2.054a.49.49 0 0 1-.331.332 9.745 9.745 0 0 0-1.745.72.487.487 0 0 1-.468 0L5.56 2.797a1 1 0 0 0-1.192.168L2.966 4.367a1 1 0 0 0-.168 1.193L3.83 7.42a.486.486 0 0 1 0 .467 9.73 9.73 0 0 0-.72 1.745.49.49 0 0 1-.331.332l-2.055.588a1 1 0 0 0-.724.962v1.972a1 1 0 0 0 .725.961l2.055.59a.489.489 0 0 1 .331.331 9.774 9.774 0 0 0 .72 1.746.487.487 0 0 1 0 .467L2.797 19.44a1 1 0 0 0 .168 1.192l1.401 1.402a1 1 0 0 0 1.193.168l1.86-1.032a.487.487 0 0 1 .467 0 9.745 9.745 0 0 0 1.745.72.49.49 0 0 1 .331.33l.59 2.056a1 1 0 0 0 .96.724h1.973a1 1 0 0 0 .962-.725l.588-2.054a.49.49 0 0 1 .332-.332 9.753 9.753 0 0 0 1.745-.72.487.487 0 0 1 .468.001l1.859 1.032a1 1 0 0 0 1.192-.168l1.402-1.402a1 1 0 0 0 .168-1.192l-1.032-1.86a.487.487 0 0 1 0-.467 9.76 9.76 0 0 0 .72-1.745.49.49 0 0 1 .33-.332l2.056-.589a1 1 0 0 0 .724-.96v-1.973a1 1 0 0 0-.724-.962ZM12.5 17a4.5 4.5 0 1 1 4.5-4.5 4.5 4.5 0 0 1-4.5 4.5Z"/>
  </g>
  <g id="svg-detach" transform="matrix(.02551 0 0 -.02976 -.255 43.331)">
    <path id="path50" d="M780 948.5v-175c0-43.4-15.4-80.5-46.2-111.3C703 631.4 665.9 616 622.5 616h-455c-43.4 0-80.5 15.4-111.3 46.2C25.4 693 10 730.1 10 773.5v455c0 43.4 15.4 80.5 46.2 111.3 30.8 30.8 67.9 46.2 111.3 46.2h385c5.1 0 9.3-1.6 12.6-4.9 3.3-3.3 4.9-7.5 4.9-12.6v-35c0-5.1-1.6-9.3-4.9-12.6-3.3-3.3-7.5-4.9-12.6-4.9h-385c-24.1 0-44.7-8.6-61.8-25.7-17.1-17.1-25.7-37.7-25.7-61.8v-455c0-24.1 8.6-44.7 25.7-61.8 17.1-17.1 37.7-25.7 61.8-25.7h455c24.1 0 44.7 8.6 61.8 25.7 17.1 17.1 25.7 37.7 25.7 61.8v175c0 5.1 1.6 9.3 4.9 12.6 3.3 3.3 7.5 4.9 12.6 4.9h35c5.1 0 9.3-1.6 12.6-4.9 3.3-3.3 4.9-7.5 4.9-12.6zM990 1421v-280c0-9.5-3.5-17.7-10.4-24.6-6.9-6.9-15.1-10.4-24.6-10.4-9.5 0-17.7 3.5-24.6 10.4l-96.3 96.3-356.5-356.6c-3.6-3.6-7.8-5.5-12.6-5.5-4.7 0-8.9 1.8-12.6 5.5l-62.3 62.3c-3.6 3.6-5.5 7.8-5.5 12.6 0 4.7 1.8 8.9 5.5 12.6l356.6 356.6-96.3 96.3c-6.9 6.9-10.4 15.1-10.4 24.6 0 9.5 3.5 17.7 10.4 24.6 6.9 6.9 15.1 10.4 24.6 10.4h280c9.5 0 17.7-3.5 24.6-10.4 6.9-6.9 10.4-15.2 10.4-24.7z"/>
  </g>
</svg>
